M48
; DRILL file {KiCad 9.0.7} date 2026-04-30T16:18:39+0200
; FORMAT={-:-/ absolute / metric / decimal}
; #@! TF.CreationDate,2026-04-30T16:18:39+02:00
; #@! TF.GenerationSoftware,Kicad,Pcbnew,9.0.7
; #@! TF.FileFunction,Plated,1,2,PTH
FMAT,2
METRIC
; #@! TA.AperFunction,Plated,PTH,ViaDrill
T1C0.300
; #@! TA.AperFunction,Plated,PTH,ComponentDrill
T2C0.600
; #@! TA.AperFunction,Plated,PTH,ComponentDrill
T3C0.700
; #@! TA.AperFunction,Plated,PTH,ComponentDrill
T4C0.800
; #@! TA.AperFunction,Plated,PTH,ComponentDrill
T5C0.900
; #@! TA.AperFunction,Plated,PTH,ComponentDrill
T6C1.000
; #@! TA.AperFunction,Plated,PTH,ComponentDrill
T7C1.100
; #@! TA.AperFunction,Plated,PTH,ComponentDrill
T8C1.300
; #@! TA.AperFunction,Plated,PTH,ComponentDrill
T9C1.400
; #@! TA.AperFunction,Plated,PTH,ComponentDrill
T10C3.200
%
G90
G05
T1
X116.5Y-78.5
X117.0Y-61.0
X117.0Y-63.5
X117.0Y-66.0
X117.0Y-69.0
X120.0Y-42.0
X120.0Y-43.5
X120.0Y-45.0
X120.0Y-61.0
X120.0Y-63.5
X120.0Y-66.0
X120.0Y-69.0
X122.5Y-41.0
X123.5Y-42.0
X124.5Y-41.0
X127.0Y-72.5
X130.46Y-86.0
X130.5Y-72.5
X130.5Y-82.5
X131.46Y-83.5
X131.46Y-85.0
X134.0Y-61.5
X134.0Y-65.0
X135.0Y-73.0
X135.48Y-84.01
X137.5Y-69.0
X141.5Y-74.5
X142.0Y-73.5
X142.5Y-69.5
X143.88Y-93.5
X144.88Y-92.5
X144.88Y-94.5
X146.5Y-92.0
X148.0Y-92.0
X149.5Y-92.0
X149.5Y-95.0
X150.38Y-93.5
X165.5Y-83.5
X166.0Y-41.5
X166.0Y-55.5
X167.0Y-40.0
X167.0Y-49.0
X167.0Y-54.0
X167.0Y-64.0
X168.0Y-40.5
X168.0Y-47.5
X168.0Y-54.5
X168.0Y-92.0
X168.0Y-94.5
X168.5Y-62.5
X168.5Y-74.5
X168.5Y-83.5
X168.5Y-86.0
X168.5Y-88.5
X169.0Y-49.0
X169.5Y-64.0
X169.5Y-76.0
X170.5Y-49.0
X170.5Y-76.0
X171.0Y-41.5
X171.0Y-55.5
X171.0Y-68.0
X171.5Y-47.5
X172.0Y-40.5
X172.0Y-54.0
X172.0Y-66.5
X172.0Y-74.5
X172.5Y-48.5
X173.0Y-41.5
X173.0Y-55.5
X173.0Y-64.0
X173.0Y-68.0
X173.0Y-74.5
X174.0Y-62.5
X174.0Y-65.5
T2
X124.5Y-35.0
X126.0Y-35.0
X139.5Y-38.0
X141.0Y-38.0
T3
X95.0Y-32.5
X95.0Y-34.5
X122.0Y-58.0
X124.0Y-58.0
X125.5Y-61.5
X127.5Y-61.5
X151.5Y-73.5
X152.0Y-68.0
X153.5Y-73.5
X154.0Y-68.0
T4
X147.62Y-64.825
X147.62Y-69.705
T5
X125.5Y-86.0
X125.5Y-88.54
T6
X100.58Y-65.5
X100.58Y-68.27
X100.58Y-71.04
X100.58Y-73.81
X100.96Y-90.58
X102.345Y-93.42
X103.42Y-64.115
X103.42Y-66.885
X103.42Y-69.655
X103.42Y-72.425
X103.42Y-75.195
X103.73Y-90.58
X105.115Y-93.42
X106.5Y-90.58
X107.885Y-93.42
X109.27Y-90.58
X110.655Y-93.42
X112.04Y-90.58
X115.0Y-30.5
X117.54Y-30.5
X120.08Y-30.5
X122.62Y-30.5
X125.5Y-98.0
X128.04Y-98.0
X130.58Y-98.0
X133.12Y-98.0
X135.66Y-98.0
X138.2Y-98.0
X144.5Y-30.5
X144.5Y-98.0
X147.04Y-30.5
X147.04Y-98.0
X149.58Y-98.0
X152.12Y-98.0
X167.0Y-30.0
X169.54Y-30.0
X178.0Y-46.0
X178.0Y-48.54
X178.0Y-58.5
X178.0Y-61.04
X178.0Y-70.5
X178.0Y-73.04
X178.0Y-80.5
X178.0Y-83.04
X178.0Y-85.58
X178.0Y-88.12
X178.0Y-90.66
X178.0Y-93.2
X178.0Y-95.74
T7
X126.88Y-30.5
X137.04Y-30.5
X148.0Y-52.5
X148.0Y-55.04
T8
X152.88Y-29.7
X152.88Y-36.1
X152.88Y-55.0
X160.5Y-32.9
X160.5Y-55.0
T9
X133.46Y-48.5
X136.0Y-48.5
X138.54Y-48.5
T10
X94.0Y-92.0
X102.0Y-57.155
X102.0Y-82.155
X119.0Y-92.0
M30
